<?xml version="1.0" standalone="no"?>
<!DOCTYPE svg PUBLIC "-//W3C//DTD SVG 20010904//EN"
 "http://www.w3.org/TR/2001/REC-SVG-20010904/DTD/svg10.dtd">
<svg version="1.0" xmlns="http://www.w3.org/2000/svg"
 width="100.000000pt" height="100.000000pt" viewBox="0 0 100.000000 100.000000"
 preserveAspectRatio="xMidYMid meet">
<metadata>
Created by potrace 1.11, written by Peter Selinger 2001-2013
</metadata>
<g transform="translate(0.000000,100.000000) scale(0.100000,-0.100000)"
fill="#000000" stroke="none">
<path d="M358 903 c-9 -2 -21 -16 -26 -31 -8 -26 -12 -27 -83 -28 -116 -3
-118 -3 -138 -23 -18 -18 -19 -38 -19 -352 0 -328 1 -332 22 -354 22 -22 25
-22 391 -22 336 0 370 2 386 18 15 15 17 40 15 237 -1 156 -5 225 -13 233 -7
7 -44 12 -92 13 l-81 0 0 102 c0 142 -5 148 -134 148 -93 0 -97 1 -102 23 -4
13 -14 27 -23 32 -17 9 -75 11 -103 4z m90 -91 l3 -62 -46 0 -45 0 0 59 c0 64
4 68 60 66 24 -1 25 -5 28 -63z m-120 -14 c-3 -9 -30 -14 -78 -16 -41 -2 -79
-7 -85 -12 -6 -5 -10 -103 -10 -280 1 -245 3 -273 18 -281 9 -6 17 -16 17 -24
0 -25 23 -29 165 -30 118 0 140 -2 140 -15 0 -13 -26 -15 -177 -15 -98 1 -180
4 -184 8 -11 10 -12 638 -2 660 7 14 23 17 104 17 72 0 95 -3 92 -12z m356
-10 c3 -13 5 -62 4 -109 -1 -64 -5 -86 -15 -86 -13 0 -14 9 -15 118 0 26 -3
51 -7 57 -4 6 -42 12 -86 14 -52 2 -80 7 -83 16 -3 9 21 12 97 12 96 0 101 -1
105 -22z m-354 -53 c0 -22 145 -22 154 0 4 13 20 15 73 13 l68 -3 0 -68 c1
-38 -4 -71 -10 -75 -5 -4 -27 -7 -47 -8 -66 -2 -68 -7 -68 -193 l0 -166 -152
0 -153 0 -3 258 -2 257 70 0 c56 0 70 -3 70 -15z m541 -187 c1 -7 2 -102 3
-211 1 -170 -1 -200 -14 -206 -12 -6 -290 -8 -322 -2 -10 1 -11 415 -1 424 3
4 80 7 170 7 123 0 163 -3 164 -12z m-373 -352 c3 -3 -60 -5 -139 -5 -79 1
-128 4 -109 8 43 7 239 5 248 -3z"/>
<path d="M220 641 c0 -14 14 -16 108 -16 88 0 107 3 107 15 0 12 -19 15 -107
16 -94 1 -108 0 -108 -15z"/>
<path d="M224 591 c-2 -2 -4 -10 -4 -18 0 -10 19 -13 74 -13 73 0 92 6 78 25
-7 10 -139 15 -148 6z"/>
<path d="M220 515 c0 -11 12 -15 44 -15 30 0 46 5 50 15 4 12 -4 15 -44 15
-38 0 -50 -4 -50 -15z"/>
<path d="M280 362 c0 -44 4 -61 15 -66 16 -6 16 -6 17 72 1 36 -3 48 -16 50
-13 3 -16 -6 -16 -56z"/>
<path d="M342 345 c1 -25 4 -48 8 -50 14 -9 25 13 26 53 0 34 -3 42 -18 42
-15 0 -18 -8 -16 -45z"/>
<path d="M220 330 c0 -20 5 -30 15 -30 10 0 15 10 15 30 0 20 -5 30 -15 30
-10 0 -15 -10 -15 -30z"/>
<path d="M409 355 c-1 -3 -1 -14 -1 -25 0 -36 2 -39 17 -34 9 4 15 19 15 35 0
19 -5 29 -15 29 -8 0 -15 -2 -16 -5z"/>
<path d="M572 518 c-13 -13 -17 -107 -4 -109 49 -7 272 -2 273 6 13 113 10
115 -134 115 -82 0 -127 -4 -135 -12z m238 -48 l0 -30 -109 0 -110 0 3 28 c2
15 4 28 5 30 0 1 48 2 106 2 l105 0 0 -30z"/>
<path d="M587 344 c-4 -4 -7 -20 -7 -36 0 -26 3 -29 28 -26 21 2 28 9 30 31 2
15 -1 27 -7 27 -5 0 -16 2 -23 5 -8 3 -17 2 -21 -1z"/>
<path d="M682 341 c-8 -4 -12 -19 -10 -32 2 -18 10 -25 31 -27 27 -3 32 4 27
38 -2 14 -18 30 -30 30 -3 0 -11 -4 -18 -9z"/>
<path d="M780 341 c-9 -3 -15 -12 -14 -18 1 -7 2 -20 3 -29 1 -11 9 -14 29
-12 22 2 27 8 27 32 0 30 -16 39 -45 27z"/>
<path d="M580 220 c0 -27 3 -30 30 -30 27 0 30 3 30 30 0 27 -3 30 -30 30 -27
0 -30 -3 -30 -30z"/>
<path d="M677 243 c-12 -11 -8 -51 6 -56 33 -11 63 17 51 48 -6 15 -45 21 -57
8z"/>
<path d="M768 238 c-10 -28 4 -48 34 -48 26 0 29 3 26 28 -2 21 -9 28 -29 30
-16 2 -29 -2 -31 -10z"/>
</g>
</svg>
